<?xml version="1.0" standalone="no"?>
<!DOCTYPE svg PUBLIC "-//W3C//DTD SVG 20010904//EN"
 "http://www.w3.org/TR/2001/REC-SVG-20010904/DTD/svg10.dtd">
<svg version="1.0" xmlns="http://www.w3.org/2000/svg"
 width="400.000000pt" height="400.000000pt" viewBox="0 0 400.000000 400.000000"
 preserveAspectRatio="xMidYMid meet">

<g transform="translate(0.000000,400.000000) scale(0.100000,-0.100000)"
fill="#000000" stroke="none">
<path d="M1935 3374 c-11 -2 -44 -9 -72 -15 l-53 -10 0 -115 c0 -70 5 -122 12
-133 10 -16 7 -24 -14 -49 -25 -30 -26 -33 -21 -164 2 -73 6 -138 8 -144 9
-29 251 -45 354 -23 l49 10 6 117 c3 64 6 127 7 140 0 13 -12 41 -27 63 -20
30 -24 43 -16 48 9 5 12 41 10 126 l-3 119 -45 13 c-49 15 -163 25 -195 17z
m213 -336 c33 -36 42 -73 42 -172 0 -71 -4 -97 -15 -106 -12 -10 -18 -10 -31
1 -13 11 -15 27 -9 103 7 87 6 93 -20 130 -39 58 -14 93 33 44z"/>
<path d="M2180 2680 c0 -5 5 -10 10 -10 6 0 10 5 10 10 0 6 -4 10 -10 10 -5 0
-10 -4 -10 -10z"/>
<path d="M2005 2635 c-57 -18 -137 -59 -173 -90 l-31 -26 -4 38 c-2 21 -4 -39
-4 -133 -1 -192 -4 -203 -79 -287 -23 -26 -53 -69 -66 -95 -22 -46 -23 -55
-24 -312 0 -146 1 -194 3 -106 3 144 5 158 21 153 141 -46 169 -50 322 -51
157 -1 211 7 338 46 l62 19 0 97 c0 115 -20 167 -94 249 -64 71 -76 105 -76
212 l0 90 -42 -16 c-83 -32 -342 -15 -355 23 -2 7 28 16 74 24 43 8 102 26
131 42 30 15 60 28 66 28 7 0 21 9 31 20 16 18 17 20 1 26 -13 5 -15 14 -11
35 6 27 4 29 -22 28 -15 -1 -46 -7 -68 -14z m136 -345 c4 -19 10 -52 14 -74 4
-26 21 -54 50 -85 46 -49 69 -95 61 -118 -9 -23 -35 -14 -51 18 -9 16 -32 47
-51 68 -18 21 -40 54 -48 72 -18 43 -30 124 -22 145 10 27 40 11 47 -26z"/>
<path d="M2150 2552 c-61 -39 -94 -77 -86 -98 5 -14 15 -15 64 -9 31 4 61 10
65 14 4 5 7 34 5 65 l-3 57 -45 -29z"/>
<path d="M1891 1652 c-60 -59 -91 -125 -91 -191 0 -35 -14 -13 -36 54 -8 28
-18 57 -21 65 -10 27 -31 -52 -32 -118 -1 -74 15 -116 70 -189 22 -29 34 -53
27 -53 -24 0 -37 16 -51 55 l-14 40 -11 -52 c-25 -116 19 -194 133 -233 78
-27 80 -25 16 10 -72 40 -90 57 -112 105 -25 54 -25 69 0 55 11 -5 48 -10 82
-10 l62 0 -62 64 c-52 55 -91 115 -91 143 0 4 12 -5 28 -19 25 -25 70 -48 92
-48 5 0 0 19 -10 43 -38 83 -18 179 51 244 l34 31 54 -41 c77 -59 104 -113 99
-199 -3 -63 -2 -68 17 -68 24 0 85 36 85 50 0 5 4 10 10 10 17 0 32 -83 28
-150 -6 -76 -32 -141 -78 -193 -43 -50 -32 -58 18 -13 62 56 86 122 87 236 0
84 -3 101 -28 153 -16 31 -32 57 -36 57 -4 0 -12 -20 -19 -44 -6 -24 -18 -46
-27 -49 -12 -5 -15 3 -15 46 0 29 -9 70 -19 92 -17 38 -87 109 -153 156 l-28
20 -59 -59z"/>
<path d="M2331 1691 c-12 -8 -12 -12 -2 -25 26 -31 49 -18 35 18 -7 18 -13 19
-33 7z"/>
<path d="M1667 1672 c-22 -24 -23 -72 -2 -72 9 0 19 8 22 18 4 9 14 22 22 28
13 10 13 13 -1 28 -21 20 -21 20 -41 -2z"/>
<path d="M2197 1659 c-18 -11 -24 -39 -7 -39 6 0 15 -12 21 -27 9 -24 11 -25
26 -10 14 13 14 20 3 47 -15 37 -21 41 -43 29z"/>
<path d="M1627 1444 c-4 -4 -6 -44 -5 -88 1 -45 3 -63 5 -42 3 21 11 49 19 62
23 35 7 93 -19 68z"/>
<path d="M2312 1418 c-14 -14 -16 -54 -4 -62 14 -9 29 8 37 42 7 34 -9 44 -33
20z"/>
<path d="M1959 1383 c-20 -23 -19 -272 0 -330 17 -51 50 -60 69 -19 36 79 53
329 24 358 -9 9 -12 9 -12 0 0 -7 -11 -12 -25 -12 -14 0 -25 5 -25 10 0 15
-16 12 -31 -7z"/>
<path d="M1647 1133 c-13 -13 -7 -50 11 -66 30 -27 44 -3 24 39 -16 34 -23 40
-35 27z"/>
<path d="M2267 1118 c-2 -13 -8 -32 -12 -42 -6 -13 -5 -17 2 -13 6 4 13 2 15
-5 9 -25 28 5 28 43 0 43 -24 56 -33 17z"/>
<path d="M1620 844 c0 -251 7 -264 152 -299 142 -34 355 -29 502 12 92 26 96
36 96 276 l0 197 -38 -25 c-94 -62 -252 -93 -384 -75 -87 12 -220 50 -280 81
-21 11 -40 19 -43 19 -3 0 -5 -84 -5 -186z m713 -59 c-3 -83 -42 -175 -74
-175 -29 0 -33 25 -9 58 15 20 25 55 32 111 10 75 13 82 32 79 19 -3 21 -8 19
-73z"/>
</g>
</svg>
